<?xml version="1.0" encoding="UTF-8" standalone="no"?>
<!-- Created with Inkscape (http://www.inkscape.org/) -->

<svg
   xmlns:dc="http://purl.org/dc/elements/1.1/"
   xmlns:cc="http://creativecommons.org/ns#"
   xmlns:rdf="http://www.w3.org/1999/02/22-rdf-syntax-ns#"
   xmlns:svg="http://www.w3.org/2000/svg"
   xmlns="http://www.w3.org/2000/svg"
   xmlns:xlink="http://www.w3.org/1999/xlink"
   xmlns:sodipodi="http://sodipodi.sourceforge.net/DTD/sodipodi-0.dtd"
   xmlns:inkscape="http://www.inkscape.org/namespaces/inkscape"
   id="svg4208"
   version="1.1"
   inkscape:version="0.91 r13725"
   width="512"
   height="512"
   viewBox="0 0 512 512"
   sodipodi:docname="ic_launcher.svg">
  <metadata
     id="metadata4214">
    <rdf:RDF>
      <cc:Work
         rdf:about="">
        <dc:format>image/svg+xml</dc:format>
        <dc:type
           rdf:resource="http://purl.org/dc/dcmitype/StillImage" />
        <dc:title />
      </cc:Work>
    </rdf:RDF>
  </metadata>
  <defs
     id="defs4212">
    <linearGradient
       inkscape:collect="always"
       id="linearGradient4835-8-3">
      <stop
         style="stop-color:#746643;stop-opacity:1;"
         offset="0"
         id="stop4851" />
      <stop
         style="stop-color:#d6d0c0;stop-opacity:1;"
         offset="1"
         id="stop4853" />
    </linearGradient>
    <linearGradient
       inkscape:collect="always"
       xlink:href="#linearGradient4835-8-3"
       id="linearGradient4841"
       x1="101.9661"
       y1="32.271187"
       x2="101.9661"
       y2="54.101692"
       gradientUnits="userSpaceOnUse" />
    <filter
       style="color-interpolation-filters:sRGB;"
       inkscape:label="Drop Shadow"
       id="filter5061">
      <feFlood
         flood-opacity="0.498039"
         flood-color="rgb(0,0,0)"
         result="flood"
         id="feFlood5063" />
      <feComposite
         in="flood"
         in2="SourceGraphic"
         operator="in"
         result="composite1"
         id="feComposite5065" />
      <feGaussianBlur
         in="composite1"
         stdDeviation="3"
         result="blur"
         id="feGaussianBlur5067" />
      <feOffset
         dx="6"
         dy="6"
         result="offset"
         id="feOffset5069" />
      <feComposite
         in="SourceGraphic"
         in2="offset"
         operator="over"
         result="composite2"
         id="feComposite5071" />
    </filter>
  </defs>
  <sodipodi:namedview
     pagecolor="#ffffff"
     bordercolor="#666666"
     borderopacity="1"
     objecttolerance="10"
     gridtolerance="10"
     guidetolerance="10"
     inkscape:pageopacity="0"
     inkscape:pageshadow="2"
     inkscape:window-width="1294"
     inkscape:window-height="694"
     id="namedview4210"
     showgrid="false"
     inkscape:zoom="1.3037281"
     inkscape:cx="164.16762"
     inkscape:cy="301.01336"
     inkscape:window-x="530"
     inkscape:window-y="239"
     inkscape:window-maximized="0"
     inkscape:current-layer="layer3" />
  <rect
     style="opacity:1;fill:#3c3c3c;fill-opacity:1;stroke:none;stroke-width:5;stroke-linecap:round;stroke-linejoin:round;stroke-miterlimit:4;stroke-dasharray:none;stroke-opacity:1"
     id="rect4216"
     width="444.87802"
     height="422.63412"
     x="32.215305"
     y="54.849472" />
  <g
     inkscape:groupmode="layer"
     id="layer1"
     inkscape:label="Layer 1" />
  <g
     inkscape:groupmode="layer"
     id="layer3"
     inkscape:label="Layer 2"
     style="display:inline">
    <g
       id="g5013"
       style="filter:url(#filter5061)">
      <path
         inkscape:connector-curvature="0"
         id="path4758"
         d="m 36.050461,56.743786 0,420.333034"
         style="fill:none;fill-opacity:1;fill-rule:evenodd;stroke:#7b6631;stroke-width:8;stroke-linecap:butt;stroke-linejoin:miter;stroke-miterlimit:4;stroke-dasharray:none;stroke-opacity:1" />
      <path
         inkscape:connector-curvature="0"
         id="path4760"
         d="m 32.215305,478.25063 447.179125,0"
         style="fill:none;fill-rule:evenodd;stroke:#624d15;stroke-width:3.31137919;stroke-linecap:butt;stroke-linejoin:miter;stroke-miterlimit:4;stroke-dasharray:none;stroke-opacity:1" />
      <path
         inkscape:connector-curvature="0"
         id="path4758-8"
         d="m 475.55928,56.383537 0,420.333033"
         style="fill:none;fill-opacity:1;fill-rule:evenodd;stroke:#7b6631;stroke-width:8;stroke-linecap:butt;stroke-linejoin:miter;stroke-miterlimit:4;stroke-dasharray:none;stroke-opacity:1" />
      <path
         inkscape:connector-curvature="0"
         id="path4833"
         d="M 53.152542,32.271185 32,53.966101 l 448.40678,0 -22.10169,-21.559322 z"
         style="fill:url(#linearGradient4841);fill-opacity:1;fill-rule:evenodd;stroke:none;stroke-width:1px;stroke-linecap:butt;stroke-linejoin:miter;stroke-opacity:1" />
      <path
         inkscape:connector-curvature="0"
         id="path4760-7"
         d="m 32.023545,55.616503 447.179135,0"
         style="fill:none;fill-rule:evenodd;stroke:#918054;stroke-width:2;stroke-linecap:butt;stroke-linejoin:miter;stroke-miterlimit:4;stroke-dasharray:none;stroke-opacity:1" />
      <path
         sodipodi:nodetypes="cccccccccccccccccccccccccc"
         inkscape:connector-curvature="0"
         id="path5002"
         d="m 57.143816,291.47856 c 4.173186,-61.7344 7.389416,-137.38447 13.614802,-172.96551 3.231228,-12.36861 7.165526,-13.33143 9.012615,-13.80655 3.413092,1.72845 3.788155,0.51097 6.423886,6.71151 4.906334,34.7117 29.577891,271.01281 38.255671,310.45584 2.72951,2.63712 1.97812,2.38739 6.1439,4.10834 3.96417,-1.10884 5.14711,-3.90695 5.3732,-3.90695 14.4734,-80.60325 19.71115,-177.82779 39.68223,-223.79095 2.07093,-7.26012 3.19521,-6.53287 5.07677,-6.74642 3.85977,1.4244 4.93194,2.93917 7.03886,7.37786 11.79091,56.39993 28.70317,131.85648 36.97436,161.97915 1.84488,2.37809 2.28618,2.57651 6.13226,3.90295 3.37346,-1.02612 3.87836,-1.35603 6.58955,-4.82685 11.20519,-33.18785 23.85606,-91.68317 38.14418,-118.39796 2.9742,-5.19211 2.78605,-4.58057 5.28414,-5.53406 5.12567,0.80984 4.94223,2.12724 6.1615,3.10136 17.56685,26.80883 24.49237,65.05111 39.34325,85.56851 2.50624,3.30143 2.99634,3.89238 6.45397,5.07676 3.33178,-0.92021 4.05426,-1.05925 5.93286,-3.06812 20.99431,-36.87628 18.25492,-40.64882 36.49578,-61.50208 4.26489,-2.80788 5.15987,-4.76711 7.24625,-4.80957 5.05672,-0.32081 5.4748,1.61106 8.08109,5.1778 8.65467,12.15032 29.86792,39.20821 36.27112,42.99228 3.51396,2.10514 4.12199,2.3171 6.33964,2.61882 3.86059,-0.40581 5.29491,-0.99971 7.82717,-1.80526 11.51324,-9.56734 11.5573,-11.19814 16.57425,-15.94679"
         style="fill:none;fill-rule:evenodd;stroke:#81a5d0;stroke-width:10;stroke-linecap:butt;stroke-linejoin:miter;stroke-miterlimit:4;stroke-dasharray:none;stroke-opacity:1" />
    </g>
  </g>
</svg>
