<?xml version="1.0" encoding="UTF-8" standalone="no"?>
<!-- Generator: Adobe Illustrator 16.0.4, SVG Export Plug-In . SVG Version: 6.00 Build 0)  -->

<svg
   xmlns:dc="http://purl.org/dc/elements/1.1/"
   xmlns:cc="http://creativecommons.org/ns#"
   xmlns:rdf="http://www.w3.org/1999/02/22-rdf-syntax-ns#"
   xmlns:svg="http://www.w3.org/2000/svg"
   xmlns="http://www.w3.org/2000/svg"
   xmlns:sodipodi="http://sodipodi.sourceforge.net/DTD/sodipodi-0.dtd"
   xmlns:inkscape="http://www.inkscape.org/namespaces/inkscape"
   version="1.1"
   id="Layer_1"
   x="0px"
   y="0px"
   width="128px"
   height="128px"
   viewBox="0 0 128 128"
   enable-background="new 0 0 128 128"
   xml:space="preserve"
   inkscape:version="0.91 r13725"
   sodipodi:docname="openproject.svg"><metadata
     id="metadata4297"><rdf:RDF><cc:Work
         rdf:about=""><dc:format>image/svg+xml</dc:format><dc:type
           rdf:resource="http://purl.org/dc/dcmitype/StillImage" /></cc:Work></rdf:RDF></metadata><defs
     id="defs4295" /><sodipodi:namedview
     pagecolor="#ffffff"
     bordercolor="#666666"
     borderopacity="1"
     objecttolerance="10"
     gridtolerance="10"
     guidetolerance="10"
     inkscape:pageopacity="0"
     inkscape:pageshadow="2"
     inkscape:window-width="1920"
     inkscape:window-height="978"
     id="namedview4293"
     showgrid="false"
     inkscape:zoom="6.0546875"
     inkscape:cx="64"
     inkscape:cy="64"
     inkscape:window-x="0"
     inkscape:window-y="65"
     inkscape:window-maximized="1"
     inkscape:current-layer="Layer_1" /><g
     id="g4302"><path
       d="m 87.455,35.328 0,-2.354 c 0,-3.01 -2.46,-5.47 -5.471,-5.47 -19.315,-1.53 -38.359,14.707 -38.359,36.72 l 0,33.78 c 0,1.96 1.15,3.66 2.8,4.47 l 0,23.08 c 1.48,0.431 2.98,0.8 4.5,1.11 l 0,-24.22 c 1.62,-0.82 2.74,-2.49 2.74,-4.44 l 0,-26.74 c 0,-2.76 2.32,-4.92 5.09,-4.92 1.36,0 2.57,0.68 3.47,1.561 0.06,0.06 4.46,4.88 6.21,6.5 l 1.15,1.069 c 5.113,4.704 17.87,6.077 17.87,-1.75 l 0,-29.794 c -1.616,-2.527 -1.616,-6.076 0,-8.602 z"
       id="path4289"
       inkscape:connector-curvature="0"
       style="fill:#633d50" /><path
       d="m 68.103,50.612 c 0.246,-0.211 0.494,-0.421 0.748,-0.624 0.18,-0.143 0.363,-0.279 0.545,-0.418 0.213,-0.162 0.428,-0.322 0.646,-0.479 0.223,-0.158 0.449,-0.313 0.676,-0.466 0.174,-0.116 0.348,-0.229 0.523,-0.343 0.277,-0.177 0.557,-0.352 0.842,-0.52 0.104,-0.062 0.211,-0.121 0.316,-0.182 4.475,-2.568 9.695,-3.979 15.057,-3.979 l 0,-8 c -4.146,0 -8.23,0.681 -12.082,1.951 -0.098,0.025 -0.197,0.035 -0.295,0.068 -2.354,0.795 -4.609,1.836 -6.74,3.07 -0.123,0.071 -0.248,0.142 -0.371,0.215 -0.367,0.218 -0.729,0.442 -1.086,0.673 -0.221,0.141 -0.439,0.284 -0.656,0.43 -0.291,0.196 -0.58,0.395 -0.865,0.599 -0.281,0.2 -0.556,0.407 -0.83,0.615 -0.231,0.176 -0.463,0.349 -0.689,0.529 -0.334,0.266 -0.659,0.542 -0.982,0.82 -0.166,0.143 -0.336,0.279 -0.5,0.425 -0.485,0.433 -0.961,0.877 -1.423,1.337 -1.564,1.56 -1.569,4.092 -0.009,5.656 0.781,0.784 1.807,1.177 2.832,1.177 1.021,0 2.042,-0.389 2.824,-1.167 l 0,0 0,0 c 0.021,-0.021 0.045,-0.041 0.066,-0.062 0.338,-0.334 0.686,-0.659 1.041,-0.977 0.135,-0.117 0.275,-0.231 0.412,-0.348 z"
       id="path4291"
       inkscape:connector-curvature="0"
       style="fill:#ea502f" /></g></svg>